<?xml version="1.0" standalone="no"?><!DOCTYPE svg PUBLIC "-//W3C//DTD SVG 1.1//EN" "http://www.w3.org/Graphics/SVG/1.1/DTD/svg11.dtd"><svg t="1553697021899" class="icon" style="" viewBox="0 0 1024 1024" version="1.1" xmlns="http://www.w3.org/2000/svg" p-id="1650" xmlns:xlink="http://www.w3.org/1999/xlink" width="200" height="200"><defs><style type="text/css"></style></defs><path d="M505.784889 958.535111a14.179556 14.179556 0 0 1-10.055111-4.167111L40.888889 499.541333a14.222222 14.222222 0 0 1 0-20.110222L495.729778 24.604444a14.208 14.208 0 0 1 20.110222 0l454.840889 454.826667a14.222222 14.222222 0 0 1 0 20.110222l-454.826667 454.826667a14.179556 14.179556 0 0 1-10.069333 4.167111zM71.068444 489.486222l434.730667 434.730667L940.515556 489.486222 505.784889 54.755556 71.068444 489.486222z" fill="#1296db" p-id="1651"></path><path d="M576.867556 674.275556h-142.151112v-113.720889h-113.706666v-142.151111h113.706666v-113.706667h142.151112v113.706667h113.706666v142.151111h-113.706666v113.720889z m-113.706667-28.444445h85.262222v-113.720889h113.706667v-85.262222h-113.706667v-113.706667h-85.262222v113.706667h-113.706667v85.262222h113.706667v113.720889z" fill="#1296db" p-id="1652"></path></svg>