<?xml version="1.0" standalone="no"?><!DOCTYPE svg PUBLIC "-//W3C//DTD SVG 1.1//EN" "http://www.w3.org/Graphics/SVG/1.1/DTD/svg11.dtd"><svg t="1553697973241" class="icon" style="" viewBox="0 0 1024 1024" version="1.1" xmlns="http://www.w3.org/2000/svg" p-id="3954" xmlns:xlink="http://www.w3.org/1999/xlink" width="200" height="200"><defs><style type="text/css"></style></defs><path d="M353.508289 410.05926l319.271534 0 0 31.927153-319.271534 0 0-31.927153Z" p-id="3955" fill="#1296db"></path><path d="M353.508289 545.747615l319.271534 0 0 31.927153-319.271534 0 0-31.927153Z" p-id="3956" fill="#1296db"></path><path d="M353.508289 681.440064l319.271534 0 0 31.918967-319.271534 0 0-31.918967Z" p-id="3957" fill="#1296db"></path><path d="M712.024639 186.566116l0-29.91124c0-22.004153-17.904789-39.908942-39.908942-39.908942L354.169345 116.745934c-22.004153 0-39.908942 17.904789-39.908942 39.908942l0 29.91124L209.836099 186.566116 209.836099 841.068667c0 35.263132 28.590152 63.854307 63.854307 63.854307l478.907301 0c35.263132 0 63.854307-28.591175 63.854307-63.854307L816.452014 186.566116 712.024639 186.566116zM362.151134 164.636664l301.982776 0 0 71.836095L362.151134 236.472759 362.151134 164.636664zM768.561283 825.105091c0 17.631566-14.295588 31.927153-31.927153 31.927153l-446.980147 0c-17.632589 0-31.927153-14.295588-31.927153-31.927153L257.726829 234.456846l56.534598 0 0 9.997702c0 22.004153 17.904789 39.908942 39.908942 39.908942l317.946352 0c22.004153 0 39.908942-17.904789 39.908942-39.908942l0-9.997702 56.535621 0L768.561283 825.105091z" p-id="3958" fill="#1296db"></path></svg>